<svg xmlns="http://www.w3.org/2000/svg" viewBox="0 0 375.51 319.09"><title>dark square opaque</title><path d="M313.24,451.93H258.55L139.17,295.44V451.93H95.71V132.84h43.46V281L256.11,132.84h51.52l5.61,36.62-36.38.4L181.65,284.45Z" transform="translate(-95.71 -132.84)" style="fill:#002d4d"/><path d="M422.15,451.93h49.07l-92.53-152.1A98.21,98.21,0,0,0,408.11,288a83.26,83.26,0,0,0,21.48-18.8A77.27,77.27,0,0,0,442.65,245a89.34,89.34,0,0,0,4.4-28.2,94.75,94.75,0,0,0-6-34.3A65.59,65.59,0,0,0,422.27,156q-12.82-11-32.84-17.09t-47.85-6.1h-42V167.5c1.16.66,2.33,1.3,3.48,2H340.6q29.06,0,45,12.69t16,38.33a54.3,54.3,0,0,1-4.76,23.32,47.69,47.69,0,0,1-13.43,17.09,59.2,59.2,0,0,1-21,10.5,100.34,100.34,0,0,1-27.71,3.54H299.59v34.91l40.55.16" transform="translate(-95.71 -132.84)" style="fill:#002d4d"/></svg>