<svg xmlns="http://www.w3.org/2000/svg" xmlns:xlink="http://www.w3.org/1999/xlink" viewBox="0 0 1072.92 319.09"><defs><clipPath id="a" transform="translate(-96.51 -132.84)"><rect x="0.8" width="566.93" height="566.93" style="fill:none"/></clipPath></defs><title>dark large opaque</title><g style="clip-path:url(#a)"><polygon points="217.53 319.09 162.84 319.09 43.46 162.6 43.46 319.09 0 319.09 0 0 43.46 0 43.46 148.19 160.4 0 211.91 0 217.53 36.62 181.15 37.02 85.94 151.61 217.53 319.09" style="fill:#002d4d"/><g style="clip-path:url(#a)"><path d="M422.94,451.93H472l-92.53-152.1A98,98,0,0,0,408.9,288a83.14,83.14,0,0,0,21.49-18.8A77.47,77.47,0,0,0,443.45,245a89.33,89.33,0,0,0,4.39-28.2,94.54,94.54,0,0,0-6-34.3A65.5,65.5,0,0,0,423.06,156q-12.81-11-32.83-17.09t-47.86-6.1h-42V167.5l3.49,2H341.4q29,0,45,12.69t16,38.33a54.15,54.15,0,0,1-4.76,23.32,47.47,47.47,0,0,1-13.43,17.09,59.24,59.24,0,0,1-21,10.5,100.39,100.39,0,0,1-27.71,3.54H300.38v34.91l40.55.16" transform="translate(-96.51 -132.84)" style="fill:#002d4d"/></g></g><path d="M663.27,374.15h-28L574.14,294v80.12H551.89V210.78h22.25v75.87L634,210.78h26.37l-64.5,77.62Z" transform="translate(-96.51 -132.84)" style="fill:#002d4d"/><path d="M776.81,374.15H683.93V210.78h92.88v18.75H706.18v50.62h67.88V298.9H706.18v56.25h70.63Z" transform="translate(-96.51 -132.84)" style="fill:#002d4d"/><path d="M903.22,374.15H810.34V210.78h92.88v18.75H832.59v50.62h67.88V298.9H832.59v56.25h70.63Z" transform="translate(-96.51 -132.84)" style="fill:#002d4d"/><path d="M1029.63,374.15H936.76V210.78h92.87v18.75H959v50.62h67.87V298.9H959v56.25h70.62Z" transform="translate(-96.51 -132.84)" style="fill:#002d4d"/><path d="M1169.42,374.15H1144.3l-24.38-52.25a58.23,58.23,0,0,0-5.62-9.94,27,27,0,0,0-6.19-6.25,22.1,22.1,0,0,0-7.25-3.31,36.11,36.11,0,0,0-8.81-1h-10.5v72.75H1059.3V210.78h43.75q14.25,0,24.5,3.12a46.25,46.25,0,0,1,16.81,8.75,33.55,33.55,0,0,1,9.63,13.56,48.52,48.52,0,0,1,3.06,17.57,45.7,45.7,0,0,1-2.25,14.43,39.52,39.52,0,0,1-6.69,12.38,42.29,42.29,0,0,1-11,9.62,50.15,50.15,0,0,1-15.06,6.07,25.59,25.59,0,0,1,11.69,8.31,90.87,90.87,0,0,1,9.81,15.81Zm-35.62-118.5q0-13.12-8.19-19.62t-23.06-6.5h-21v54h18a51.34,51.34,0,0,0,14.19-1.82,30.33,30.33,0,0,0,10.75-5.37,24.4,24.4,0,0,0,6.87-8.75A27.71,27.71,0,0,0,1133.8,255.65Z" transform="translate(-96.51 -132.84)" style="fill:#002d4d"/></svg>